<svg width="400" height="300" xmlns="http://www.w3.org/2000/svg">
  <rect width="400" height="300" fill="#f8fafc"/>
  <rect x="20" y="20" width="360" height="260" rx="8" fill="#ffffff" stroke="#e2e8f0" stroke-width="1"/>
  <rect x="30" y="30" width="100" height="20" rx="4" fill="#3b82f6"/>
  <rect x="140" y="30" width="80" height="20" rx="4" fill="#e2e8f0"/>
  <rect x="230" y="30" width="60" height="20" rx="4" fill="#e2e8f0"/>
  <rect x="30" y="60" width="340" height="40" rx="4" fill="#f1f5f9"/>
  <rect x="30" y="110" width="160" height="30" rx="4" fill="#ffffff" stroke="#e2e8f0" stroke-width="1"/>
  <rect x="200" y="110" width="170" height="30" rx="4" fill="#ffffff" stroke="#e2e8f0" stroke-width="1"/>
  <rect x="30" y="150" width="340" height="120" rx="4" fill="#f8fafc"/>
  <circle cx="60" cy="180" r="15" fill="#3b82f6"/>
  <rect x="85" y="170" width="120" height="20" rx="2" fill="#1e293b"/>
  <rect x="85" y="195" width="200" height="12" rx="2" fill="#64748b"/>
  <circle cx="60" cy="230" r="15" fill="#10b981"/>
  <rect x="85" y="220" width="100" height="20" rx="2" fill="#1e293b"/>
  <rect x="85" y="245" width="150" height="12" rx="2" fill="#64748b"/>
</svg>