<svg width="400" height="300" xmlns="http://www.w3.org/2000/svg">
  <rect width="400" height="300" fill="#f3e8ff"/>
  <rect x="20" y="20" width="360" height="260" rx="8" fill="#ffffff" stroke="#8b5cf6" stroke-width="2"/>
  <circle cx="50" cy="50" r="20" fill="#8b5cf6"/>
  <text x="50" y="55" font-family="Arial" font-size="16" fill="#ffffff" text-anchor="middle">📊</text>
  <text x="80" y="55" font-family="Arial" font-size="14" fill="#1e293b" font-weight="bold">Feature Request Board</text>
  <rect x="30" y="80" width="340" height="40" rx="4" fill="#ede9fe"/>
  <circle cx="50" cy="100" r="8" fill="#8b5cf6"/>
  <text x="65" y="95" font-family="Arial" font-size="11" fill="#1e293b" font-weight="bold">Dark mode support</text>
  <text x="65" y="110" font-family="Arial" font-size="9" fill="#64748b">🔥 42 votes</text>
  <rect x="30" y="125" width="340" height="40" rx="4" fill="#ede9fe"/>
  <circle cx="50" cy="145" r="8" fill="#8b5cf6"/>
  <text x="65" y="140" font-family="Arial" font-size="11" fill="#1e293b" font-weight="bold">Mobile app</text>
  <text x="65" y="155" font-family="Arial" font-size="9" fill="#64748b">👍 38 votes</text>
  <rect x="30" y="170" width="340" height="40" rx="4" fill="#ede9fe"/>
  <circle cx="50" cy="190" r="8" fill="#8b5cf6"/>
  <text x="65" y="185" font-family="Arial" font-size="11" fill="#1e293b" font-weight="bold">API access</text>
  <text x="65" y="200" font-family="Arial" font-size="9" fill="#64748b">⭐ 25 votes</text>
  <rect x="30" y="220" width="120" height="35" rx="6" fill="#8b5cf6"/>
  <text x="90" y="242" font-family="Arial" font-size="13" fill="#ffffff" text-anchor="middle" font-weight="bold">+ Add Request</text>
  <text x="320" y="260" font-family="Arial" font-size="10" fill="#64748b">User voting system</text>
</svg>